<?xml version="1.0" encoding="utf-8"?>
<!-- Generator: Adobe Illustrator 15.0.0, SVG Export Plug-In  -->
<!DOCTYPE svg PUBLIC "-//W3C//DTD SVG 1.1//EN" "http://www.w3.org/Graphics/SVG/1.1/DTD/svg11.dtd" [
	<!ENTITY ns_flows "http://ns.adobe.com/Flows/1.0/">
]>
<svg version="1.1"
	 xmlns="http://www.w3.org/2000/svg" xmlns:xlink="http://www.w3.org/1999/xlink" xmlns:a="http://ns.adobe.com/AdobeSVGViewerExtensions/3.0/"
	 x="0px" y="0px" width="496px" height="155px" viewBox="2.883 4.633 496 155"
	 overflow="visible" enable-background="new 2.883 4.633 496 155" xml:space="preserve">
<defs>
</defs>
<g>
	<g>
		<g>
			<path fill="none" stroke="#3D2700" stroke-width="2" stroke-miterlimit="10" stroke-dasharray="2.0084,2.0084" d="
				M146.603,86.773c0,4.527-5.854,8.411-6.68,12.726c-0.918,4.39,2.99,10.248,1.287,14.305c-1.744,4.144-8.578,5.5-11.027,9.183
				c-2.5,3.728-1.154,10.564-4.301,13.713c-3.143,3.148-9.988,1.831-13.713,4.299c-3.683,2.444-5.038,9.341-9.178,11.027
				c-4.07,1.705-9.917-2.202-14.31-1.287c-4.311,0.825-8.194,6.68-12.754,6.68c-4.527,0-8.445-5.854-12.721-6.68
				c-4.425-0.915-10.25,2.992-14.31,1.287c-4.14-1.687-5.495-8.583-9.182-11.027c-3.697-2.473-10.594-1.15-13.713-4.299
				c-3.144-3.148-1.795-9.985-4.296-13.713c-2.445-3.688-9.323-5.043-11.027-9.183c-1.701-4.057,2.174-9.915,1.299-14.308
				c-0.838-4.312-6.658-8.195-6.658-12.723c0-4.556,5.82-8.438,6.658-12.748c0.875-4.395-3.004-10.243-1.299-14.312
				c1.704-4.118,8.582-5.497,11.027-9.185c2.501-3.686,1.152-10.561,4.3-13.71c3.115-3.148,10.014-1.798,13.709-4.265
				c3.687-2.479,5.042-9.356,9.186-11.062c4.056-1.696,9.881,2.175,14.306,1.315c4.275-0.856,8.193-6.675,12.721-6.675
				c4.56,0,8.443,5.818,12.754,6.675c4.393,0.859,10.239-3.012,14.31-1.315c4.14,1.705,5.498,8.583,9.181,11.062
				c3.727,2.467,10.568,1.116,13.71,4.265c3.152,3.149,1.801,10.024,4.301,13.71c2.449,3.688,9.291,5.066,11.027,9.185
				c1.703,4.068-2.205,9.917-1.287,14.312C140.75,78.335,146.603,82.218,146.603,86.773z"/>
		</g>
	</g>
</g>
<path fill="none" stroke="#FCA903" stroke-width="4.9" stroke-miterlimit="10" d="M136.191,85.944c0,3.86-4.99,7.171-5.695,10.85
	c-0.782,3.741,2.551,8.736,1.098,12.195c-1.488,3.531-7.314,4.689-9.402,7.828c-2.131,3.178-0.984,9.008-3.667,11.691
	c-2.679,2.686-8.516,1.562-11.692,3.666c-3.14,2.084-4.295,7.965-7.825,9.401c-3.471,1.455-8.455-1.878-12.201-1.097
	c-3.675,0.703-6.986,5.694-10.874,5.694c-3.86,0-7.2-4.991-10.846-5.694c-3.772-0.781-8.739,2.552-12.2,1.097
	c-3.53-1.437-4.685-7.317-7.829-9.401c-3.152-2.107-9.032-0.98-11.691-3.666c-2.68-2.684-1.53-8.514-3.663-11.691
	c-2.085-3.143-7.949-4.299-9.402-7.828c-1.451-3.459,1.853-8.454,1.107-12.198c-0.714-3.676-5.676-6.987-5.676-10.847
	c0-3.884,4.962-7.195,5.676-10.869c0.746-3.747-2.561-8.733-1.107-12.202c1.453-3.511,7.317-4.687,9.402-7.831
	c2.132-3.142,0.982-9.004,3.666-11.689c2.656-2.685,8.538-1.533,11.688-3.636c3.144-2.113,4.299-7.978,7.832-9.431
	c3.458-1.446,8.424,1.854,12.197,1.122c3.646-0.73,6.985-5.691,10.846-5.691c3.887,0,7.199,4.961,10.874,5.691
	c3.746,0.732,8.73-2.568,12.201-1.122c3.53,1.454,4.688,7.318,7.827,9.431c3.177,2.104,9.01,0.952,11.689,3.636
	c2.688,2.685,1.536,8.547,3.667,11.689c2.088,3.144,7.922,4.32,9.402,7.831c1.453,3.468-1.88,8.455-1.098,12.202
	C131.201,78.75,136.191,82.06,136.191,85.944z"/>
<text transform="matrix(1 0 0 1 155.1304 157.6729)" fill="#3D2700" font-family="'Matchbook'" font-size="185.5">GOLGAPPA</text>
<g>
	<g>
		<path fill-rule="evenodd" clip-rule="evenodd" fill="#FCA903" d="M70.245,28.092c28.344-2.394,47.083,11.824,56.769,29.813
			c5.035,9.354,8.102,18.962,6.942,33.489c-2.142,26.854-24.095,48.021-48.192,51.87c-6.267,1.001-12.547,1.127-19.602,0
			c-12.175-1.943-23.912-8.295-32.265-17.153c-10.125-10.739-17.726-25.689-15.928-46.968c0.623-7.375,3.457-14.334,6.125-19.604
			c5.736-11.323,13.475-19.633,25.729-25.729C55.95,30.763,62.758,28.724,70.245,28.092z M72.287,35.035
			c-0.804,1.103-0.737,3.075-2.859,2.859c-2.19,0.285-1.789-2.021-3.676-2.042c-2.026,0.832-4.727,0.991-6.534,2.042
			c-0.673,0.96-0.129,3.139-1.634,3.268c-4.693-1.794-6.94,0.748-10.21,2.45c0.865,4.338-2.198,4.963-4.9,3.676
			c-1.329,2.21-3.909,3.169-4.9,5.717c0.362,0.727,1.138,1.039,0.816,2.451c-0.905,1.48-2.305,2.501-4.492,1.634
			c-1.233,2.035-2.14,4.395-3.677,6.126c0.255,1.378,1.45,1.818,1.634,3.267c-0.689,1.626-2.117,2.513-4.084,2.859
			c-0.579,2.143-1.001,4.443-1.633,6.534c0.617,1.292,2.207,1.604,2.041,3.676c-0.3,1.47-1.674,1.866-2.858,2.45
			c0,2.45,0,4.901,0,7.352c1.25,0.656,2.828,0.983,2.858,2.859c0.039,1.944-1.875,1.938-2.041,3.675
			c0.819,1.769,1.005,4.168,1.633,6.127c2.06,0.391,3.641,1.26,4.084,3.266c-0.396,1.102-1.41,1.586-1.634,2.859
			c1.537,1.73,2.443,4.094,3.677,6.128c2.242-0.864,3.913,0.147,4.492,2.042c0.438,1.526-1.014,1.165-0.816,2.452
			c1.391,2.011,3.508,3.296,4.9,5.309c2.566-1.422,5.834-0.595,4.9,3.675c3.368,1.913,5.637,4.102,10.618,2.451
			c0.951,0.547,0.632,2.363,1.226,3.268c1.808,1.052,4.508,1.209,6.534,2.042c1.958-0.087,1.548-2.538,4.084-2.042
			c1.708,0.061,1.708,1.831,2.451,2.859c2.451,0,4.901,0,7.351,0c0.603-1.305,0.806-3.008,2.859-2.859
			c2.19-0.285,1.79,2.021,3.676,2.042c1.884-0.977,4.784-0.934,6.534-2.042c0.673-0.961,0.129-3.14,1.634-3.268
			c4.692,1.794,6.941-0.749,10.21-2.451c-0.933-4.27,2.335-5.097,4.901-3.675c1.328-2.21,3.91-3.17,4.899-5.718
			c-0.362-0.727-1.14-1.038-0.815-2.451c0.904-1.48,2.305-2.501,4.492-1.634c1.096-2.172,2.207-4.329,3.676-6.128
			c-0.256-1.379-1.45-1.818-1.634-3.268c0.688-1.623,2.117-2.512,4.084-2.857c0.437-2.288,1.054-4.393,1.634-6.536
			c-0.616-1.29-2.208-1.604-2.042-3.676c0.3-1.469,1.674-1.865,2.859-2.45c0-2.45,0-4.901,0-7.352
			c-1.251-0.655-2.829-0.983-2.859-2.858c-0.039-1.945,1.875-1.938,2.042-3.676c-0.777-1.81-1.148-4.025-1.634-6.126
			c-2.058-0.392-3.641-1.261-4.084-3.267c0.396-1.103,1.41-1.587,1.634-2.859c-1.535-1.731-2.443-4.091-3.676-6.126
			c-2.244,0.864-3.915-0.147-4.492-2.042c-0.438-1.525,1.013-1.164,0.815-2.451c-1.391-2.012-3.508-3.297-4.899-5.309
			c-2.703,1.287-5.766,0.662-4.901-3.676c-3.366-1.912-5.636-4.102-10.618-2.45c-0.951-0.548-0.631-2.363-1.226-3.268
			c-1.808-1.051-4.509-1.21-6.534-2.042c-1.956,0.086-1.548,2.536-4.085,2.042c-1.662-0.106-1.902-1.637-2.45-2.859
			C77.188,35.035,74.738,35.035,72.287,35.035z"/>
		<path fill-rule="evenodd" clip-rule="evenodd" fill="#FCA903" d="M42.065,52.188c5.314,3.401,10.58,8.662,15.927,13.477
			c4.113,3.706,7.758,7.758,11.436,12.252c1.685-1.286-0.768-2.204-1.224-3.675c-6.646-8.466-10.931-19.293-15.928-29.405
			c2.525,2.043,3.58,5.093,5.308,7.76c3.077,4.752,7.465,9.607,10.211,15.112c1.403,2.812,1.679,6.255,4.083,8.576
			c1.145-0.908-0.033-2.633-0.407-3.675c-1.394-3.874-3.005-8.114-4.084-13.07c-1.368-6.278-2.69-13.029-3.677-19.195
			c1.313,1.268,1.676,3.828,2.452,6.126c0.71,2.11,1.34,4.396,2.042,6.534c1.37,4.176,3.536,8.347,4.492,12.66
			c0.723,3.272-0.049,6.708,1.632,9.803c2.012-1.742,0.196-4.242,0-6.535c-0.456-5.352,0.511-11.706,0.817-17.561
			c0.141-2.668-0.198-5.462,0-7.76c0.107-1.242,0-3.391,1.226-4.085c0.746,11.729,1.574,25.09,0.817,35.94
			c2.284-1.757,1.265-6.287,2.042-9.803c0.955-4.318,3.151-8.581,4.492-12.66c1.089-3.316,2.12-6.5,3.268-9.801
			c0.323-0.935-0.122-2.54,1.225-2.859c-1.851,9.375-3.189,19.586-6.127,28.181c-0.91,2.664-2.272,5.2-2.45,7.76
			c1.579-0.429,2.303-2.476,2.859-3.675c0.682-1.472,0.921-3.476,1.634-4.901c2.644-5.298,6.912-10.334,10.21-15.521
			c1.6-2.517,3.081-5.291,5.31-7.352c-4.841,9.628-9.183,20.625-15.52,29.405c-0.747,1.036-2.691,1.586-2.043,3.268
			c2.918-0.368,4.238-4.835,6.535-7.352c2.97-3.253,7.149-5.963,10.618-8.984c3.596-3.131,6.725-6.601,10.211-9.393
			c-1.691,3.933-5.491,6.666-8.576,10.209c-5.257,6.034-10.384,12.329-17.153,17.153c1.505,1.069,3.317-0.776,4.492-1.634
			c1.362-0.994,2.796-2.895,4.084-3.675c1.805-1.096,4.448-1.771,6.534-2.859c5.545-2.891,12.221-6.297,17.969-9.393
			c1.374,0.959-1.774,1.711-2.856,2.449c-6.052,4.126-12.823,9.307-20.013,13.07c-2.952,1.545-6.218,2.452-8.577,4.492
			c4.078,0.532,7.554-2.625,11.844-3.678c2.04-0.499,4.293-0.746,6.534-1.224c5.702-1.217,12.381-2.219,18.378-3.675
			c-1.482,1.602-4.396,2.04-6.941,2.857c-9.111,2.924-18.333,6.661-29.406,8.169c3.128,1.904,6.704-0.267,10.62-0.408
			c4.638-0.169,11.216,0.854,15.926,1.224c2.053,0.162,4.293,0.275,6.128,0.41c1.807,0.132,4.221-0.804,5.309,0.815
			c-6.595,0.295-12.698,0.484-20.013,0.817c-2.379,0.108-4.7,0.872-6.942,0.817c-3.811-0.095-7.427-1.911-11.027-0.817
			c1.966,1.82,4.637,1.26,6.943,1.635c8.765,1.417,17.812,5.206,26.138,8.167c1.078,0.384,2.79,0.346,3.267,1.634
			c-6.272-1.044-12.402-2.854-18.378-4.085c-2.065-0.426-4.499-0.317-6.534-0.816c-4.13-1.012-7.686-3.836-11.844-4.084
			c2.086,2.657,5.714,3.403,8.577,4.9c2.845,1.489,5.493,3.157,8.168,4.901c5.388,3.514,11.007,6.94,15.111,10.618
			c-5.993-3.021-12.567-6.219-18.786-9.393c-2.075-1.059-4.38-1.798-6.127-2.858c-2.919-1.771-4.813-5.298-8.168-5.718
			c-0.041,1.74,2.095,2.736,3.266,3.676c8.007,6.415,15.169,15.784,22.463,23.691c-2.79-1.254-6.534-5.028-10.618-8.577
			c-5.554-4.828-9.319-8.162-13.478-13.479c-0.905-1.158-2.653-3.746-3.267-3.677c-1.877,0.214,1.352,3.928,1.226,3.677
			c6.645,8.465,10.929,19.294,15.928,29.407c-2.526-2.043-3.582-5.093-5.31-7.759c-3.077-4.751-7.465-9.61-10.21-15.114
			c-1.404-2.812-1.679-6.256-4.084-8.577c-1.144,0.908,0.033,2.632,0.408,3.675c1.393,3.875,3.004,8.115,4.083,13.072
			c1.368,6.278,2.69,13.029,3.677,19.195c-1.313-1.267-1.676-3.828-2.451-6.126c-0.711-2.109-1.339-4.396-2.041-6.534
			c-1.372-4.174-3.538-8.346-4.492-12.662c-0.724-3.271,0.049-6.708-1.634-9.803c-2.013,1.742-0.195,4.243,0,6.536
			c0.456,5.352-0.511,11.708-0.817,17.562c-0.141,2.669,0.198,5.462,0,7.76c-0.107,1.244,0,3.391-1.225,4.085
			c-0.747-11.729-1.575-25.091-0.816-35.943c-2.286,1.758-1.267,6.288-2.042,9.803c-0.957,4.32-3.153,8.583-4.492,12.662
			c-1.091,3.316-2.122,6.501-3.27,9.803c-0.323,0.933,0.123,2.539-1.225,2.857c1.851-9.374,3.19-19.586,6.126-28.182
			c0.911-2.665,2.273-5.202,2.451-7.76c-1.579,0.431-2.301,2.475-2.859,3.675c-0.682,1.471-0.92,3.474-1.633,4.902
			c-2.644,5.297-6.912,10.335-10.211,15.522c-1.6,2.517-3.079,5.291-5.308,7.351c4.84-9.627,9.181-20.627,15.519-29.407
			c0.747-1.036,2.689-1.586,2.041-3.268c-2.917,0.367-4.237,4.836-6.534,7.35c-2.969,3.252-7.148,5.963-10.619,8.988
			c-3.595,3.131-6.724,6.601-10.209,9.394c1.69-3.934,5.49-6.668,8.576-10.214c5.257-6.033,10.385-12.329,17.154-17.152
			c-1.507-1.069-3.318,0.776-4.494,1.634c-1.361,0.994-2.797,2.895-4.084,3.675c-1.806,1.097-4.447,1.772-6.534,2.858
			c-5.545,2.889-12.221,6.297-17.969,9.393c-1.372-0.959,1.774-1.711,2.858-2.449c6.05-4.125,12.822-9.306,20.011-13.07
			c2.954-1.545,6.218-2.453,8.577-4.491c-4.078-0.533-7.554,2.623-11.844,3.675c-2.041,0.501-4.294,0.748-6.533,1.226
			c-5.701,1.216-12.381,2.219-18.379,3.676c1.483-1.604,4.396-2.041,6.941-2.859c9.111-2.924,18.334-6.66,29.407-8.168
			c-3.2-1.889-6.947,0.274-10.619,0.409c-4.287,0.155-9.155-0.603-13.886-0.817c-4.492-0.204-9.009-1.086-13.479-0.817
			c0.84-1.587,3.354-0.718,4.901-0.815c4.088-0.261,9.759-0.574,15.112-0.818c2.297-0.104,4.755-0.87,6.941-0.815
			c3.989,0.098,7.587,1.935,11.028,0.815c-1.966-1.818-4.638-1.26-6.944-1.634c-8.765-1.418-17.812-5.207-26.138-8.167
			c-1.077-0.383-2.79-0.346-3.267-1.633c6.271,1.042,12.402,2.853,18.379,4.084c2.064,0.424,4.5,0.317,6.533,0.814
			c4.131,1.013,7.687,3.838,11.844,4.085c-2.086-2.656-5.714-3.402-8.577-4.899c-2.845-1.49-5.492-3.157-8.168-4.901
			c-5.388-3.514-11.007-6.939-15.111-10.618c5.993,3.021,12.569,6.218,18.787,9.393c2.075,1.058,4.379,1.798,6.126,2.859
			c2.919,1.771,4.815,5.297,8.169,5.717c0.039-1.74-2.096-2.736-3.267-3.676C56.523,69.461,49.36,60.094,42.065,52.188z"/>
	</g>
</g>
<text transform="matrix(1 0 0 1 0 195.7432)" fill="#FCA903" font-family="'Montserrat-Regular'" font-size="43.75">INDIAN STREET FOOD</text>
</svg>
